<svg width="44" height="39" viewBox="0 0 44 39" fill="none" xmlns="http://www.w3.org/2000/svg">
<path d="M25.373 0H41.8312C42.9674 0 43.8884 0.921057 43.8884 2.05727V15.7724C43.8884 16.9086 42.9674 17.8297 41.8312 17.8297H25.373C24.2368 17.8297 23.3157 16.9086 23.3157 15.7724V2.05727C23.3157 0.921057 24.2368 0 25.373 0ZM18.5154 0H2.05727C0.921057 0 0 0.921057 0 2.05727V15.7724C0 16.9086 0.921057 17.8297 2.05727 17.8297H18.5154C19.6516 17.8297 20.5727 16.9086 20.5727 15.7724V2.05727C20.5727 0.921057 19.6516 0 18.5154 0ZM0 22.63V36.3451C0 37.4813 0.921057 38.4024 2.05727 38.4024H18.5154C19.6516 38.4024 20.5727 37.4813 20.5727 36.3451V22.63C20.5727 21.4938 19.6516 20.5727 18.5154 20.5727H2.05727C0.921057 20.5727 0 21.4938 0 22.63ZM25.373 38.4024H41.8312C42.9674 38.4024 43.8884 37.4813 43.8884 36.3451V22.63C43.8884 21.4938 42.9674 20.5727 41.8312 20.5727H25.373C24.2368 20.5727 23.3157 21.4938 23.3157 22.63V36.3451C23.3157 37.4813 24.2368 38.4024 25.373 38.4024Z" fill="url(#paint0_linear_227_94)"/>
<defs>
<linearGradient id="paint0_linear_227_94" x1="-3.5" y1="-9" x2="52" y2="53" gradientUnits="userSpaceOnUse">
<stop stop-color="#35F13D"/>
<stop offset="0.854167" stop-opacity="0.67"/>
</linearGradient>
</defs>
</svg>
