<svg width="38" height="61" viewBox="0 0 38 61" fill="none" xmlns="http://www.w3.org/2000/svg">
<path d="M28.5014 20.3373C31.0206 20.3373 33.4366 19.266 35.2179 17.359C36.9993 15.452 38 12.8655 38 10.1687C38 7.47176 36.9993 4.88532 35.2179 2.97833C33.4366 1.07134 31.0206 0 28.5014 0L9.50418 0C6.98646 0 4.57187 1.07071 2.79158 2.97658C1.01129 4.88246 0.0111316 7.46738 0.0111316 10.1627C0.0111316 12.858 1.01129 15.4429 2.79158 17.3488C4.57187 19.2547 6.98646 20.3254 9.50418 20.3254C6.98499 20.3254 4.56898 21.3967 2.78765 23.3037C1.00631 25.2107 0.00556717 27.7971 0.00556717 30.494C0.00556717 33.1909 1.00631 35.7774 2.78765 37.6844C4.56898 39.5914 6.98499 40.6627 9.50418 40.6627C7.62553 40.6615 5.78874 41.2567 4.22609 42.3731C2.66345 43.4895 1.44512 45.0768 0.725173 46.9345C0.00522983 48.7921 -0.183993 50.8366 0.181433 52.8093C0.54686 54.7821 1.45052 56.5945 2.77815 58.0175C4.10577 59.4404 5.79773 60.4099 7.64007 60.8034C9.4824 61.197 11.3924 60.9968 13.1284 60.2282C14.8645 59.4597 16.3487 58.1573 17.3933 56.4857C18.438 54.8141 18.9961 52.8485 18.9972 50.8373V20.3373H28.5014ZM28.5014 20.3373C26.6238 20.3373 24.7885 20.9333 23.2273 22.05C21.6662 23.1667 20.4495 24.7539 19.731 26.6109C19.0125 28.4679 18.8245 30.5113 19.1908 32.4826C19.557 34.454 20.4612 36.2648 21.7888 37.6861C23.1164 39.1074 24.8079 40.0753 26.6494 40.4674C28.4909 40.8596 30.3996 40.6583 32.1342 39.8891C33.8688 39.1199 35.3515 37.8173 36.3946 36.1461C37.4377 34.4748 37.9944 32.51 37.9944 30.5C37.9941 27.8048 36.9939 25.22 35.2137 23.3142C33.4334 21.4084 31.019 20.3376 28.5014 20.3373Z" fill="url(#paint0_linear_197_44)"/>
<defs>
<linearGradient id="paint0_linear_197_44" x1="34" y1="-0.5" x2="20" y2="71.5" gradientUnits="userSpaceOnUse">
<stop stop-color="#FF2E54"/>
<stop offset="1" stop-color="#2E2EFF" stop-opacity="0"/>
</linearGradient>
</defs>
</svg>
