<svg width="50" height="49" viewBox="0 0 50 49" fill="none" xmlns="http://www.w3.org/2000/svg">
<path d="M26.7857 21H23.2143C22.7407 21 22.2865 21.1844 21.9516 21.5126C21.6167 21.8408 21.4286 22.2859 21.4286 22.75V26.25C21.4286 26.7141 21.6167 27.1592 21.9516 27.4874C22.2865 27.8156 22.7407 28 23.2143 28H26.7857C27.2593 28 27.7135 27.8156 28.0484 27.4874C28.3833 27.1592 28.5714 26.7141 28.5714 26.25V22.75C28.5714 22.2859 28.3833 21.8408 28.0484 21.5126C27.7135 21.1844 27.2593 21 26.7857 21ZM37.5 21H33.9286C33.455 21 33.0008 21.1844 32.6659 21.5126C32.331 21.8408 32.1429 22.2859 32.1429 22.75V26.25C32.1429 26.7141 32.331 27.1592 32.6659 27.4874C33.0008 27.8156 33.455 28 33.9286 28H37.5C37.9736 28 38.4278 27.8156 38.7627 27.4874C39.0976 27.1592 39.2857 26.7141 39.2857 26.25V22.75C39.2857 22.2859 39.0976 21.8408 38.7627 21.5126C38.4278 21.1844 37.9736 21 37.5 21ZM48.2143 21H44.6429C44.1693 21 43.7151 21.1844 43.3802 21.5126C43.0453 21.8408 42.8571 22.2859 42.8571 22.75V26.25C42.8571 26.7141 43.0453 27.1592 43.3802 27.4874C43.7151 27.8156 44.1693 28 44.6429 28H48.2143C48.6879 28 49.1421 27.8156 49.477 27.4874C49.8119 27.1592 50 26.7141 50 26.25V22.75C50 22.2859 49.8119 21.8408 49.477 21.5126C49.1421 21.1844 48.6879 21 48.2143 21ZM16.0714 21H12.5C12.0264 21 11.5722 21.1844 11.2373 21.5126C10.9024 21.8408 10.7143 22.2859 10.7143 22.75V26.25C10.7143 26.7141 10.9024 27.1592 11.2373 27.4874C11.5722 27.8156 12.0264 28 12.5 28H16.0714C16.545 28 16.9992 27.8156 17.3341 27.4874C17.669 27.1592 17.8571 26.7141 17.8571 26.25V22.75C17.8571 22.2859 17.669 21.8408 17.3341 21.5126C16.9992 21.1844 16.545 21 16.0714 21ZM26.7857 42H23.2143C22.7407 42 22.2865 42.1844 21.9516 42.5126C21.6167 42.8408 21.4286 43.2859 21.4286 43.75V47.25C21.4286 47.7141 21.6167 48.1592 21.9516 48.4874C22.2865 48.8156 22.7407 49 23.2143 49H26.7857C27.2593 49 27.7135 48.8156 28.0484 48.4874C28.3833 48.1592 28.5714 47.7141 28.5714 47.25V43.75C28.5714 43.2859 28.3833 42.8408 28.0484 42.5126C27.7135 42.1844 27.2593 42 26.7857 42ZM37.5 42H33.9286C33.455 42 33.0008 42.1844 32.6659 42.5126C32.331 42.8408 32.1429 43.2859 32.1429 43.75V47.25C32.1429 47.7141 32.331 48.1592 32.6659 48.4874C33.0008 48.8156 33.455 49 33.9286 49H37.5C37.9736 49 38.4278 48.8156 38.7627 48.4874C39.0976 48.1592 39.2857 47.7141 39.2857 47.25V43.75C39.2857 43.2859 39.0976 42.8408 38.7627 42.5126C38.4278 42.1844 37.9736 42 37.5 42ZM48.2143 42H44.6429C44.1693 42 43.7151 42.1844 43.3802 42.5126C43.0453 42.8408 42.8571 43.2859 42.8571 43.75V47.25C42.8571 47.7141 43.0453 48.1592 43.3802 48.4874C43.7151 48.8156 44.1693 49 44.6429 49H48.2143C48.6879 49 49.1421 48.8156 49.477 48.4874C49.8119 48.1592 50 47.7141 50 47.25V43.75C50 43.2859 49.8119 42.8408 49.477 42.5126C49.1421 42.1844 48.6879 42 48.2143 42ZM48.2143 31.5H44.6429C44.1693 31.5 43.7151 31.6844 43.3802 32.0126C43.0453 32.3408 42.8571 32.7859 42.8571 33.25V36.75C42.8571 37.2141 43.0453 37.6592 43.3802 37.9874C43.7151 38.3156 44.1693 38.5 44.6429 38.5H48.2143C48.6879 38.5 49.1421 38.3156 49.477 37.9874C49.8119 37.6592 50 37.2141 50 36.75V33.25C50 32.7859 49.8119 32.3408 49.477 32.0126C49.1421 31.6844 48.6879 31.5 48.2143 31.5ZM48.2143 10.5H44.6429C44.1693 10.5 43.7151 10.6844 43.3802 11.0126C43.0453 11.3408 42.8571 11.7859 42.8571 12.25V15.75C42.8571 16.2141 43.0453 16.6592 43.3802 16.9874C43.7151 17.3156 44.1693 17.5 44.6429 17.5H48.2143C48.6879 17.5 49.1421 17.3156 49.477 16.9874C49.8119 16.6592 50 16.2141 50 15.75V12.25C50 11.7859 49.8119 11.3408 49.477 11.0126C49.1421 10.6844 48.6879 10.5 48.2143 10.5ZM26.7857 31.5H23.2143C22.7407 31.5 22.2865 31.6844 21.9516 32.0126C21.6167 32.3408 21.4286 32.7859 21.4286 33.25V36.75C21.4286 37.2141 21.6167 37.6592 21.9516 37.9874C22.2865 38.3156 22.7407 38.5 23.2143 38.5H26.7857C27.2593 38.5 27.7135 38.3156 28.0484 37.9874C28.3833 37.6592 28.5714 37.2141 28.5714 36.75V33.25C28.5714 32.7859 28.3833 32.3408 28.0484 32.0126C27.7135 31.6844 27.2593 31.5 26.7857 31.5ZM26.7857 10.5H23.2143C22.7407 10.5 22.2865 10.6844 21.9516 11.0126C21.6167 11.3408 21.4286 11.7859 21.4286 12.25V15.75C21.4286 16.2141 21.6167 16.6592 21.9516 16.9874C22.2865 17.3156 22.7407 17.5 23.2143 17.5H26.7857C27.2593 17.5 27.7135 17.3156 28.0484 16.9874C28.3833 16.6592 28.5714 16.2141 28.5714 15.75V12.25C28.5714 11.7859 28.3833 11.3408 28.0484 11.0126C27.7135 10.6844 27.2593 10.5 26.7857 10.5ZM16.0714 42H12.5C12.0264 42 11.5722 42.1844 11.2373 42.5126C10.9024 42.8408 10.7143 43.2859 10.7143 43.75V47.25C10.7143 47.7141 10.9024 48.1592 11.2373 48.4874C11.5722 48.8156 12.0264 49 12.5 49H16.0714C16.545 49 16.9992 48.8156 17.3341 48.4874C17.669 48.1592 17.8571 47.7141 17.8571 47.25V43.75C17.8571 43.2859 17.669 42.8408 17.3341 42.5126C16.9992 42.1844 16.545 42 16.0714 42ZM26.7857 0H23.2143C22.7407 0 22.2865 0.184374 21.9516 0.512563C21.6167 0.840752 21.4286 1.28587 21.4286 1.75V5.25C21.4286 5.71413 21.6167 6.15925 21.9516 6.48744C22.2865 6.81563 22.7407 7 23.2143 7H26.7857C27.2593 7 27.7135 6.81563 28.0484 6.48744C28.3833 6.15925 28.5714 5.71413 28.5714 5.25V1.75C28.5714 1.28587 28.3833 0.840752 28.0484 0.512563C27.7135 0.184374 27.2593 0 26.7857 0ZM37.5 0H33.9286C33.455 0 33.0008 0.184374 32.6659 0.512563C32.331 0.840752 32.1429 1.28587 32.1429 1.75V5.25C32.1429 5.71413 32.331 6.15925 32.6659 6.48744C33.0008 6.81563 33.455 7 33.9286 7H37.5C37.9736 7 38.4278 6.81563 38.7627 6.48744C39.0976 6.15925 39.2857 5.71413 39.2857 5.25V1.75C39.2857 1.28587 39.0976 0.840752 38.7627 0.512563C38.4278 0.184374 37.9736 0 37.5 0ZM48.2143 0H44.6429C44.1693 0 43.7151 0.184374 43.3802 0.512563C43.0453 0.840752 42.8571 1.28587 42.8571 1.75V5.25C42.8571 5.71413 43.0453 6.15925 43.3802 6.48744C43.7151 6.81563 44.1693 7 44.6429 7H48.2143C48.6879 7 49.1421 6.81563 49.477 6.48744C49.8119 6.15925 50 5.71413 50 5.25V1.75C50 1.28587 49.8119 0.840752 49.477 0.512563C49.1421 0.184374 48.6879 0 48.2143 0ZM5.35714 21H1.78571C1.31211 21 0.85791 21.1844 0.523024 21.5126C0.188137 21.8408 0 22.2859 0 22.75L0 26.25C0 26.7141 0.188137 27.1592 0.523024 27.4874C0.85791 27.8156 1.31211 28 1.78571 28H5.35714C5.83074 28 6.28495 27.8156 6.61983 27.4874C6.95472 27.1592 7.14286 26.7141 7.14286 26.25V22.75C7.14286 22.2859 6.95472 21.8408 6.61983 21.5126C6.28495 21.1844 5.83074 21 5.35714 21ZM5.35714 42H1.78571C1.31211 42 0.85791 42.1844 0.523024 42.5126C0.188137 42.8408 0 43.2859 0 43.75L0 47.25C0 47.7141 0.188137 48.1592 0.523024 48.4874C0.85791 48.8156 1.31211 49 1.78571 49H5.35714C5.83074 49 6.28495 48.8156 6.61983 48.4874C6.95472 48.1592 7.14286 47.7141 7.14286 47.25V43.75C7.14286 43.2859 6.95472 42.8408 6.61983 42.5126C6.28495 42.1844 5.83074 42 5.35714 42ZM5.35714 31.5H1.78571C1.31211 31.5 0.85791 31.6844 0.523024 32.0126C0.188137 32.3408 0 32.7859 0 33.25L0 36.75C0 37.2141 0.188137 37.6592 0.523024 37.9874C0.85791 38.3156 1.31211 38.5 1.78571 38.5H5.35714C5.83074 38.5 6.28495 38.3156 6.61983 37.9874C6.95472 37.6592 7.14286 37.2141 7.14286 36.75V33.25C7.14286 32.7859 6.95472 32.3408 6.61983 32.0126C6.28495 31.6844 5.83074 31.5 5.35714 31.5ZM5.35714 10.5H1.78571C1.31211 10.5 0.85791 10.6844 0.523024 11.0126C0.188137 11.3408 0 11.7859 0 12.25L0 15.75C0 16.2141 0.188137 16.6592 0.523024 16.9874C0.85791 17.3156 1.31211 17.5 1.78571 17.5H5.35714C5.83074 17.5 6.28495 17.3156 6.61983 16.9874C6.95472 16.6592 7.14286 16.2141 7.14286 15.75V12.25C7.14286 11.7859 6.95472 11.3408 6.61983 11.0126C6.28495 10.6844 5.83074 10.5 5.35714 10.5ZM5.35714 0H1.78571C1.31211 0 0.85791 0.184374 0.523024 0.512563C0.188137 0.840752 0 1.28587 0 1.75L0 5.25C0 5.71413 0.188137 6.15925 0.523024 6.48744C0.85791 6.81563 1.31211 7 1.78571 7H5.35714C5.83074 7 6.28495 6.81563 6.61983 6.48744C6.95472 6.15925 7.14286 5.71413 7.14286 5.25V1.75C7.14286 1.28587 6.95472 0.840752 6.61983 0.512563C6.28495 0.184374 5.83074 0 5.35714 0ZM16.0714 0H12.5C12.0264 0 11.5722 0.184374 11.2373 0.512563C10.9024 0.840752 10.7143 1.28587 10.7143 1.75V5.25C10.7143 5.71413 10.9024 6.15925 11.2373 6.48744C11.5722 6.81563 12.0264 7 12.5 7H16.0714C16.545 7 16.9992 6.81563 17.3341 6.48744C17.669 6.15925 17.8571 5.71413 17.8571 5.25V1.75C17.8571 1.28587 17.669 0.840752 17.3341 0.512563C16.9992 0.184374 16.545 0 16.0714 0Z" fill="url(#paint0_linear_227_97)"/>
<defs>
<linearGradient id="paint0_linear_227_97" x1="3.20513" y1="5.80263" x2="49.6434" y2="55.1799" gradientUnits="userSpaceOnUse">
<stop stop-color="#B230C8"/>
<stop offset="1" stop-color="#D9D9D9" stop-opacity="0.22"/>
</linearGradient>
</defs>
</svg>
