<svg width="39" height="39" viewBox="0 0 39 39" fill="none" xmlns="http://www.w3.org/2000/svg">
<path d="M37.6071 33.4286H35.5692L24.1904 1.88819C24.003 1.33744 23.6478 0.859191 23.1748 0.520553C22.7017 0.181916 22.1345 -0.000115786 21.5527 5.5255e-08H17.4473C16.8655 -0.000115786 16.2983 0.181916 15.8252 0.520553C15.3522 0.859191 14.997 1.33744 14.8096 1.88819L3.43078 33.4286H1.39286C1.02345 33.4286 0.66917 33.5753 0.407958 33.8365C0.146747 34.0977 0 34.452 0 34.8214L0 37.6071C0 37.9766 0.146747 38.3308 0.407958 38.592C0.66917 38.8533 1.02345 39 1.39286 39H12.5357C12.9051 39 13.2594 38.8533 13.5206 38.592C13.7818 38.3308 13.9286 37.9766 13.9286 37.6071V34.8214C13.9286 34.452 13.7818 34.0977 13.5206 33.8365C13.2594 33.5753 12.9051 33.4286 12.5357 33.4286H10.8312L12.8596 27.8571H26.1404L28.1688 33.4286H26.4643C26.0949 33.4286 25.7406 33.5753 25.4794 33.8365C25.2182 34.0977 25.0714 34.452 25.0714 34.8214V37.6071C25.0714 37.9766 25.2182 38.3308 25.4794 38.592C25.7406 38.8533 26.0949 39 26.4643 39H37.6071C37.9766 39 38.3308 38.8533 38.592 38.592C38.8533 38.3308 39 37.9766 39 37.6071V34.8214C39 34.452 38.8533 34.0977 38.592 33.8365C38.3308 33.5753 37.9766 33.4286 37.6071 33.4286ZM15.3954 20.8929L19.5 9.62029L23.6046 20.8929H15.3954Z" fill="url(#paint0_linear_227_79)"/>
<defs>
<linearGradient id="paint0_linear_227_79" x1="9" y1="20" x2="44.5" y2="48.5" gradientUnits="userSpaceOnUse">
<stop stop-color="#FF2E54"/>
<stop offset="1" stop-color="#FFB800" stop-opacity="0"/>
</linearGradient>
</defs>
</svg>
