<svg width="44" height="40" viewBox="0 0 44 40" fill="none" xmlns="http://www.w3.org/2000/svg">
<path d="M30.654 26.286L33.0923 23.8477C33.4733 23.4667 34.1362 23.7334 34.1362 24.282V35.3611C34.1362 37.3803 32.498 39.0185 30.4787 39.0185H3.65745C1.63823 39.0185 0 37.3803 0 35.3611V8.53976C0 6.52054 1.63823 4.88231 3.65745 4.88231H24.4973C25.0383 4.88231 25.3126 5.53761 24.9316 5.92621L22.4933 8.36451C22.379 8.4788 22.2266 8.53976 22.059 8.53976H3.65745V35.3611H30.4787V26.7127C30.4787 26.5527 30.5397 26.4003 30.654 26.286ZM42.5864 10.9095L22.5771 30.9188L15.6889 31.6807C13.6926 31.9017 11.9934 30.2178 12.2144 28.2062L12.9763 21.318L32.9856 1.30868C34.7305 -0.436227 37.5498 -0.436227 39.2871 1.30868L42.5788 4.60038C44.3237 6.34529 44.3237 9.1722 42.5864 10.9095ZM35.0582 13.264L30.6311 8.83693L16.4738 23.0019L15.9175 27.9776L20.8932 27.4213L35.0582 13.264ZM39.9957 7.19108L36.704 3.89937C36.3916 3.58697 35.8811 3.58697 35.5763 3.89937L33.2218 6.25386L37.6489 10.6809L40.0033 8.32641C40.3081 8.00638 40.3081 7.50348 39.9957 7.19108Z" fill="url(#paint0_linear_227_91)"/>
<defs>
<linearGradient id="paint0_linear_227_91" x1="-7.5" y1="-3.5" x2="33.5" y2="55.5" gradientUnits="userSpaceOnUse">
<stop offset="0.213542" stop-color="#6E29FF"/>
<stop offset="1" stop-color="#FD0000"/>
</linearGradient>
</defs>
</svg>
