<svg width="41" height="38" viewBox="0 0 41 38" fill="none" xmlns="http://www.w3.org/2000/svg">
<path d="M40.566 21.4418C40.5282 22.7354 39.3603 23.75 37.9788 23.75H33.5945V24.9375C33.5945 26.5602 33.2077 28.098 32.517 29.4756L37.289 33.9456C38.2791 34.8731 38.2791 36.3769 37.289 37.3044C36.2987 38.2319 34.6934 38.2318 33.7032 37.3044L29.3664 33.242C27.4054 34.7318 24.9068 35.625 22.185 35.625V17.5156C22.185 17.0238 21.7593 16.625 21.2343 16.625H19.3327C18.8076 16.625 18.3819 17.0238 18.3819 17.5156V35.625C15.6602 35.625 13.1616 34.7318 11.2006 33.242L6.8637 37.3044C5.87346 38.2319 4.26813 38.2318 3.27796 37.3044C2.28787 36.3769 2.28787 34.8731 3.27796 33.9456L8.04997 29.4756C7.35922 28.098 6.97241 26.5602 6.97241 24.9375V23.75H2.58816C1.20666 23.75 0.0388553 22.7354 0.000982163 21.4418C-0.0383964 20.0996 1.11143 19 2.53539 19H6.97241V14.64L3.27796 11.1793C2.28787 10.2518 2.28787 8.74808 3.27796 7.82057C4.26821 6.89306 5.87346 6.89306 6.8637 7.82057L11.1919 11.875H29.3749L33.7031 7.82065C34.6934 6.89314 36.2986 6.89314 37.2889 7.82065C38.279 8.74816 38.279 10.2519 37.2889 11.1794L33.5945 14.64V19H38.0315C39.4555 19 40.6053 20.0996 40.566 21.4418ZM20.3627 0C15.4617 0 11.4887 3.72162 11.4887 8.31249H29.2367C29.2367 3.72162 25.2637 0 20.3627 0Z" fill="url(#paint0_linear_197_57)"/>
<defs>
<linearGradient id="paint0_linear_197_57" x1="-4.5" y1="-2.5" x2="41" y2="44.5" gradientUnits="userSpaceOnUse">
<stop offset="0.5" stop-color="#B230C8"/>
<stop offset="0.871058" stop-color="#FEFEFE" stop-opacity="0.6"/>
<stop offset="1" stop-color="white"/>
</linearGradient>
</defs>
</svg>
